<svg width="140" height="108" viewBox="0 0 12163 9387" fill="none" xmlns="http://www.w3.org/2000/svg">
<path d="M359.288 7455.34V7234.45H1519.8V7455.34H1070.23V8689H808.862V7455.34H359.288ZM1743.52 8689V7234.45H2689.54V7455.34H2007.01V7850.22H2640.54V8071.1H2007.01V8468.12H2695.23V8689H1743.52ZM2958.36 8689V7234.45H3221.86V7902.78H3239.61L3807.09 7234.45H4128.82L3566.32 7887.15L4133.79 8689H3817.03L3383.08 8065.42L3221.86 8255.76V8689H2958.36ZM5507.19 7234.45V8689H5272.82L4587.45 7698.23H4575.37V8689H4311.88V7234.45H4547.68L5232.33 8225.93H5245.12V7234.45H5507.19ZM7094.02 7961.73C7094.02 8118.45 7064.66 8252.68 7005.95 8364.43C6947.71 8475.7 6868.17 8560.92 6767.31 8620.11C6666.93 8679.29 6553.06 8708.89 6425.69 8708.89C6298.33 8708.89 6184.22 8679.29 6083.36 8620.11C5982.99 8560.45 5903.44 8474.98 5844.73 8363.72C5786.49 8251.97 5757.37 8117.98 5757.37 7961.73C5757.37 7805 5786.49 7671.01 5844.73 7559.74C5903.44 7448 5982.99 7362.53 6083.36 7303.35C6184.22 7244.16 6298.33 7214.57 6425.69 7214.57C6553.06 7214.57 6666.93 7244.16 6767.31 7303.35C6868.17 7362.53 6947.71 7448 7005.95 7559.74C7064.66 7671.01 7094.02 7805 7094.02 7961.73ZM6829.1 7961.73C6829.1 7851.41 6811.82 7758.37 6777.26 7682.61C6743.17 7606.38 6695.82 7548.85 6635.21 7510.02C6574.6 7470.72 6504.77 7451.07 6425.69 7451.07C6346.62 7451.07 6276.78 7470.72 6216.18 7510.02C6155.57 7548.85 6107.99 7606.38 6073.42 7682.61C6039.33 7758.37 6022.28 7851.41 6022.28 7961.73C6022.28 8072.05 6039.33 8165.33 6073.42 8241.56C6107.99 8317.31 6155.57 8374.84 6216.18 8414.14C6276.78 8452.97 6346.62 8472.38 6425.69 8472.38C6504.77 8472.38 6574.6 8452.97 6635.21 8414.14C6695.82 8374.84 6743.17 8317.31 6777.26 8241.56C6811.82 8165.33 6829.1 8072.05 6829.1 7961.73ZM7343.13 8689V7234.45H7606.62V8468.12H8247.25V8689H7343.13ZM9719.02 7961.73C9719.02 8118.45 9689.66 8252.68 9630.95 8364.43C9572.71 8475.7 9493.17 8560.92 9392.31 8620.11C9291.93 8679.29 9178.06 8708.89 9050.69 8708.89C8923.33 8708.89 8809.22 8679.29 8708.36 8620.11C8607.99 8560.45 8528.44 8474.98 8469.73 8363.72C8411.49 8251.97 8382.37 8117.98 8382.37 7961.73C8382.37 7805 8411.49 7671.01 8469.73 7559.74C8528.44 7448 8607.99 7362.53 8708.36 7303.35C8809.22 7244.16 8923.33 7214.57 9050.69 7214.57C9178.06 7214.57 9291.93 7244.16 9392.31 7303.35C9493.17 7362.53 9572.71 7448 9630.95 7559.74C9689.66 7671.01 9719.02 7805 9719.02 7961.73ZM9454.1 7961.73C9454.1 7851.41 9436.82 7758.37 9402.26 7682.61C9368.17 7606.38 9320.82 7548.85 9260.21 7510.02C9199.6 7470.72 9129.77 7451.07 9050.69 7451.07C8971.62 7451.07 8901.78 7470.72 8841.18 7510.02C8780.57 7548.85 8732.99 7606.38 8698.42 7682.61C8664.33 7758.37 8647.28 7851.41 8647.28 7961.73C8647.28 8072.05 8664.33 8165.33 8698.42 8241.56C8732.99 8317.31 8780.57 8374.84 8841.18 8414.14C8901.78 8452.97 8971.62 8472.38 9050.69 8472.38C9129.77 8472.38 9199.6 8452.97 9260.21 8414.14C9320.82 8374.84 9368.17 8317.31 9402.26 8241.56C9436.82 8165.33 9454.1 8072.05 9454.1 7961.73ZM10942.6 7698.94C10930.7 7660.59 10914.4 7626.26 10893.6 7595.96C10873.2 7565.18 10848.6 7538.91 10819.7 7517.12C10791.3 7495.34 10758.6 7479.01 10721.7 7468.12C10684.7 7456.76 10644.5 7451.07 10600.9 7451.07C10522.8 7451.07 10453.2 7470.72 10392.1 7510.02C10331.1 7549.32 10283 7607.09 10248 7683.32C10213.4 7759.08 10196.1 7851.41 10196.1 7960.31C10196.1 8070.16 10213.4 8163.2 10248 8239.43C10282.5 8315.66 10330.6 8373.66 10392.1 8413.43C10453.7 8452.73 10525.2 8472.38 10606.6 8472.38C10680.5 8472.38 10744.4 8458.18 10798.4 8429.77C10852.8 8401.36 10894.7 8361.11 10924.1 8309.03C10953.5 8256.47 10968.1 8194.92 10968.1 8124.37L11027.8 8133.6H10632.9V7927.64H11223.1V8102.35C11223.1 8226.88 11196.6 8334.6 11143.6 8425.51C11090.5 8516.41 11017.6 8586.49 10924.8 8635.73C10832 8684.5 10725.5 8708.89 10605.2 8708.89C10471.2 8708.89 10353.5 8678.82 10252.2 8618.69C10151.4 8558.08 10072.5 8472.14 10015.7 8360.88C9959.37 8249.13 9931.2 8116.56 9931.2 7963.15C9931.2 7845.72 9947.77 7740.85 9980.91 7648.52C10014.5 7556.19 10061.4 7477.83 10121.5 7413.43C10181.7 7348.56 10252.2 7299.32 10333.2 7265.7C10414.2 7231.61 10502.2 7214.57 10597.4 7214.57C10677.9 7214.57 10752.9 7226.41 10822.5 7250.08C10892.1 7273.28 10953.9 7306.42 11007.9 7349.51C11062.4 7392.6 11107.1 7443.73 11142.1 7502.92C11177.2 7562.11 11200.1 7627.45 11211 7698.94H10942.6ZM11741.4 7234.45V8689H11477.9V7234.45H11741.4Z" fill="#C2C2C2"/>
<path d="M3488 3950V5022.07L4382.8 5604.53L4450.33 5494.79L3606.18 4946.09V3950H3488Z" fill="#0093DD"/>
<path d="M5506.27 658.434L5438.74 548.695L6367.3 0L7295.86 582.461L7228.33 675.317L6350.42 151.946L5506.27 658.434Z" fill="#0093DD"/>
<path d="M4493.29 3418.8V3216.2L4577.71 3264.54V3359.71L4493.29 3418.8Z" fill="#9A0000"/>
<path d="M3784.22 3823.98V2042.83L3885.52 1992.18L6299.78 3359.7V4085.67L6206.92 4195.4L4577.72 3264.43V3359.7L6299.78 4372.67V6162.27L6206.92 6212.91L3784.22 4794.75V4018.13L3885.52 3984.37L5514.72 4912.93V4828.51L3784.22 3823.98Z" fill="url(#paint0_linear_16_2)"/>
<path d="M3885.52 1992.18L6299.78 3359.7V4085.67L6206.92 4195.4L6215.36 3418.79L3784.22 2042.83L3885.52 1992.18Z" fill="#9A0000"/>
<path d="M6206.91 4431.77L4493.3 3418.79L4577.71 3359.7L6299.77 4372.67V6162.27L6206.91 6212.91V4431.77Z" fill="#9A0000"/>
<path d="M3885.52 3984.37L3784.22 4018.14L5514.72 4988.9V4912.93L3885.52 3984.37Z" fill="#9A0000"/>
<path fill-rule="evenodd" clip-rule="evenodd" d="M6426.39 3173.99L7110.15 2760.36L6232.23 2253.87L7270.53 1662.97L8140 2152.57L8849.09 1755.82L6375.74 354.539L3927.71 1755.82L6426.39 3173.99ZM6527.68 1181.8L6206.9 1004.53L5210.81 1595.43L5548.47 1772.7L6527.68 1181.8Z" fill="url(#paint1_linear_16_2)"/>
<path d="M9009.46 2034.39L6553 3435.68L6536.11 3452.56L6527.67 6280.45L7245.2 5866.82V3840.87L7414.03 3764.89V5773.96L8131.55 5360.33V3342.82L8317.26 3249.96V5259.03L9009.46 4853.84V2034.39Z" fill="url(#paint2_linear_16_2)"/>
<path d="M8933.5 1992.18L9009.47 2034.39L6536.12 3461L6527.68 6280.45L6477.03 6204.47V3418.79L8933.5 1992.18Z" fill="url(#paint3_linear_16_2)"/>
<path d="M7363.38 5723.31L7414.03 5773.96V3764.89L7363.38 3790.21V5723.31Z" fill="#1E7203"/>
<path d="M8266.62 5216.82C8272.24 4746.91 8280.12 3693.98 8266.62 3275.29L8317.26 3249.96V5259.03L8266.62 5216.82Z" fill="#1E7203"/>
<path d="M4577.71 3359.71L4493.29 3418.8V3216.2L4577.71 3264.55V3310.98V3359.71Z" fill="#9A0000"/>
<path d="M8418.59 5605.13L8351.05 5495.39L9203.64 4980.46V3984.37H9321.82V5048L8418.59 5605.13Z" fill="#0093DD"/>
<defs>
<linearGradient id="paint0_linear_16_2" x1="5042" y1="1958.42" x2="5042" y2="6212.91" gradientUnits="userSpaceOnUse">
<stop offset="0.5" stop-color="#EE1D29"/>
<stop offset="1" stop-color="#FF7B34"/>
</linearGradient>
<linearGradient id="paint1_linear_16_2" x1="6388.4" y1="354.539" x2="6388.4" y2="3173.99" gradientUnits="userSpaceOnUse">
<stop offset="0.11" stop-color="#FFFF3F"/>
<stop offset="1" stop-color="#14A021"/>
</linearGradient>
<linearGradient id="paint2_linear_16_2" x1="7768.57" y1="2034.39" x2="7768.57" y2="6280.45" gradientUnits="userSpaceOnUse">
<stop offset="0.16" stop-color="#FFFF3F"/>
<stop offset="0.5" stop-color="#14A021"/>
</linearGradient>
<linearGradient id="paint3_linear_16_2" x1="7743.25" y1="1992.18" x2="7743.25" y2="6280.45" gradientUnits="userSpaceOnUse">
<stop stop-color="#FFFF3F"/>
<stop offset="0.9999" stop-color="#14A021"/>
</linearGradient>
</defs>
</svg>
